<svg xmlns="http://www.w3.org/2000/svg" xmlns:xlink="http://www.w3.org/1999/xlink" width="500" zoomAndPan="magnify" viewBox="0 0 375 374.999991" height="500" preserveAspectRatio="xMidYMid meet" version="1.0"><defs><filter x="0%" y="0%" width="100%" height="100%" id="06a8c990bf"><feColorMatrix values="0 0 0 0 1 0 0 0 0 1 0 0 0 0 1 0 0 0 1 0" color-interpolation-filters="sRGB"/></filter><g/><clipPath id="0d8724fb2d"><path d="M 33.933594 33.933594 L 341.066406 33.933594 L 341.066406 341.066406 L 33.933594 341.066406 Z M 33.933594 33.933594 " clip-rule="nonzero"/></clipPath><clipPath id="a8fd292606"><path d="M 187.5 33.933594 C 102.6875 33.933594 33.933594 102.6875 33.933594 187.5 C 33.933594 272.3125 102.6875 341.066406 187.5 341.066406 C 272.3125 341.066406 341.066406 272.3125 341.066406 187.5 C 341.066406 102.6875 272.3125 33.933594 187.5 33.933594 Z M 187.5 33.933594 " clip-rule="nonzero"/></clipPath><clipPath id="555d5ea161"><path d="M 33.933594 33.933594 L 341.058594 33.933594 L 341.058594 341.058594 L 33.933594 341.058594 Z M 33.933594 33.933594 " clip-rule="nonzero"/></clipPath><clipPath id="5c3c830f8f"><path d="M 187.496094 33.933594 C 102.6875 33.933594 33.933594 102.6875 33.933594 187.496094 C 33.933594 272.308594 102.6875 341.058594 187.496094 341.058594 C 272.308594 341.058594 341.058594 272.308594 341.058594 187.496094 C 341.058594 102.6875 272.308594 33.933594 187.496094 33.933594 Z M 187.496094 33.933594 " clip-rule="nonzero"/></clipPath><clipPath id="c62dc527c6"><path d="M 45.699219 45.699219 L 329.300781 45.699219 L 329.300781 329.300781 L 45.699219 329.300781 Z M 45.699219 45.699219 " clip-rule="nonzero"/></clipPath><clipPath id="13f84f894b"><path d="M 187.5 45.699219 C 109.183594 45.699219 45.699219 109.183594 45.699219 187.5 C 45.699219 265.816406 109.183594 329.300781 187.5 329.300781 C 265.816406 329.300781 329.300781 265.816406 329.300781 187.5 C 329.300781 109.183594 265.816406 45.699219 187.5 45.699219 Z M 187.5 45.699219 " clip-rule="nonzero"/></clipPath><clipPath id="94ee512634"><path d="M 45.699219 45.699219 L 329.199219 45.699219 L 329.199219 329.199219 L 45.699219 329.199219 Z M 45.699219 45.699219 " clip-rule="nonzero"/></clipPath><clipPath id="37a5c64267"><path d="M 187.496094 45.699219 C 109.183594 45.699219 45.699219 109.183594 45.699219 187.496094 C 45.699219 265.808594 109.183594 329.292969 187.496094 329.292969 C 265.808594 329.292969 329.292969 265.808594 329.292969 187.496094 C 329.292969 109.183594 265.808594 45.699219 187.496094 45.699219 Z M 187.496094 45.699219 " clip-rule="nonzero"/></clipPath><mask id="4adab29e45"><g filter="url(#06a8c990bf)"><rect x="-37.5" width="450" fill="#000000" y="-37.499999" height="449.999989" fill-opacity="0.3"/></g></mask><clipPath id="53cea6fc76"><path d="M 0.664062 0.355469 L 186.332031 0.355469 L 186.332031 186.355469 L 0.664062 186.355469 Z M 0.664062 0.355469 " clip-rule="nonzero"/></clipPath><clipPath id="6943e5be55"><rect x="0" width="187" y="0" height="187"/></clipPath><clipPath id="6b44ad3f86"><path d="M 103 118 L 276 118 L 276 254 L 103 254 Z M 103 118 " clip-rule="nonzero"/></clipPath><clipPath id="5b7ad96a1d"><path d="M 97.710938 125.808594 L 272.105469 114.640625 L 280.730469 249.367188 L 106.339844 260.535156 Z M 97.710938 125.808594 " clip-rule="nonzero"/></clipPath><clipPath id="a881200722"><path d="M 97.710938 125.808594 L 272.105469 114.640625 L 280.730469 249.367188 L 106.339844 260.535156 Z M 97.710938 125.808594 " clip-rule="nonzero"/></clipPath><clipPath id="3cd71ff7b5"><path d="M 97.710938 125.808594 L 272.105469 114.640625 L 280.730469 249.367188 L 106.339844 260.535156 Z M 97.710938 125.808594 " clip-rule="nonzero"/></clipPath><clipPath id="29ba8be61a"><path d="M 109 121 L 274 121 L 274 252 L 109 252 Z M 109 121 " clip-rule="nonzero"/></clipPath><clipPath id="36acd669d5"><path d="M 97.710938 125.808594 L 272.105469 114.640625 L 280.730469 249.367188 L 106.339844 260.535156 Z M 97.710938 125.808594 " clip-rule="nonzero"/></clipPath><clipPath id="5df1439eed"><path d="M 97.710938 125.808594 L 272.105469 114.640625 L 280.730469 249.367188 L 106.339844 260.535156 Z M 97.710938 125.808594 " clip-rule="nonzero"/></clipPath><clipPath id="358df4485e"><path d="M 97.710938 125.808594 L 272.105469 114.640625 L 280.730469 249.367188 L 106.339844 260.535156 Z M 97.710938 125.808594 " clip-rule="nonzero"/></clipPath></defs><g clip-path="url(#0d8724fb2d)"><g clip-path="url(#a8fd292606)"><path fill="#ffffff" d="M 33.933594 33.933594 L 341.066406 33.933594 L 341.066406 341.066406 L 33.933594 341.066406 Z M 33.933594 33.933594 " fill-opacity="1" fill-rule="nonzero"/></g></g><g clip-path="url(#555d5ea161)"><g clip-path="url(#5c3c830f8f)"><path stroke-linecap="butt" transform="matrix(0.75, 0, 0, 0.75, 33.934617, 33.934612)" fill="none" stroke-linejoin="miter" d="M 204.74865 -0.00135768 C 91.670517 -0.00135768 -0.00136368 91.670523 -0.00136368 204.748656 C -0.00136368 317.831997 91.670517 409.498669 204.74865 409.498669 C 317.831991 409.498669 409.498663 317.831997 409.498663 204.748656 C 409.498663 91.670523 317.831991 -0.00135768 204.74865 -0.00135768 Z M 204.74865 -0.00135768 " stroke="#5a789e" stroke-width="20" stroke-opacity="1" stroke-miterlimit="4"/></g></g><g clip-path="url(#c62dc527c6)"><g clip-path="url(#13f84f894b)"><path fill="#ffffff" d="M 45.699219 45.699219 L 329.300781 45.699219 L 329.300781 329.300781 L 45.699219 329.300781 Z M 45.699219 45.699219 " fill-opacity="1" fill-rule="nonzero"/></g></g><g clip-path="url(#94ee512634)"><g clip-path="url(#37a5c64267)"><path stroke-linecap="butt" transform="matrix(0.75, 0, 0, 0.75, 45.6982, 45.698195)" fill="none" stroke-linejoin="miter" d="M 189.063871 0.00136447 C 84.647197 0.00136447 0.00135847 84.647203 0.00135847 189.063877 C 0.00135847 293.48055 84.647197 378.126389 189.063871 378.126389 C 293.480544 378.126389 378.126383 293.48055 378.126383 189.063877 C 378.126383 84.647203 293.480544 0.00136447 189.063871 0.00136447 Z M 189.063871 0.00136447 " stroke="#00db29" stroke-width="6" stroke-opacity="1" stroke-miterlimit="4"/></g></g><g mask="url(#4adab29e45)"><g transform="matrix(1, 0, 0, 1, 94, 90)"><g clip-path="url(#6943e5be55)"><g clip-path="url(#53cea6fc76)"><path fill="#968f8f" d="M 99.402344 36.371094 L 102.761719 16.632812 L 100.210938 16.367188 Z M 110.964844 38.828125 L 118.351562 20.21875 L 115.925781 19.429688 Z M 121.761719 43.632812 L 132.855469 26.972656 L 130.644531 25.695312 Z M 131.324219 50.578125 L 145.640625 36.585938 L 143.746094 34.886719 Z M 139.230469 59.359375 L 156.144531 48.652344 L 154.644531 46.585938 Z M 145.136719 69.59375 L 163.90625 62.636719 L 162.867188 60.308594 Z M 148.785156 80.839844 L 168.59375 77.933594 L 168.0625 75.4375 Z M 150.023438 92.589844 L 170 93.867188 L 170 91.316406 Z M 148.789062 104.34375 L 168.066406 109.746094 L 168.597656 107.25 Z M 145.140625 115.585938 L 162.886719 124.894531 L 163.921875 122.566406 Z M 139.230469 125.824219 L 154.644531 138.597656 L 156.144531 136.53125 Z M 131.339844 134.605469 L 143.757812 150.300781 L 145.652344 148.601562 Z M 121.769531 141.550781 L 130.652344 159.488281 L 132.863281 158.210938 Z M 110.972656 146.355469 L 115.933594 165.753906 L 118.359375 164.960938 Z M 99.410156 148.8125 L 100.230469 168.816406 L 102.78125 168.550781 Z M 87.59375 148.8125 L 84.238281 168.550781 L 86.789062 168.816406 Z M 76.035156 146.355469 L 68.648438 164.960938 L 71.074219 165.753906 Z M 65.238281 141.550781 L 54.144531 158.210938 L 56.351562 159.488281 Z M 55.675781 134.605469 L 41.363281 148.597656 L 43.257812 150.296875 Z M 47.769531 125.824219 L 30.839844 136.53125 L 32.34375 138.597656 Z M 41.863281 115.585938 L 23.09375 122.542969 L 24.128906 124.894531 Z M 38.210938 104.34375 L 18.402344 107.25 L 18.941406 109.746094 Z M 36.976562 92.589844 L 16.996094 91.316406 L 16.996094 93.867188 Z M 38.210938 80.839844 L 18.941406 75.4375 L 18.410156 77.933594 Z M 41.863281 69.59375 L 24.128906 60.308594 L 23.09375 62.636719 Z M 47.769531 59.359375 L 32.359375 46.609375 L 30.839844 48.675781 Z M 55.675781 50.578125 L 43.257812 34.882812 L 41.363281 36.582031 Z M 65.226562 43.65625 L 56.34375 25.71875 L 54.136719 26.992188 Z M 76.027344 38.847656 L 71.078125 19.429688 L 68.671875 20.21875 Z M 87.585938 36.390625 L 86.765625 16.386719 L 84.214844 16.65625 Z M 105.4375 37.332031 L 115.355469 2.902344 L 110.367188 1.847656 Z M 116.835938 41.019531 L 133.707031 9.4375 L 129.03125 7.363281 Z M 127.222656 47.015625 L 150.28125 19.628906 L 146.15625 16.65625 Z M 136.148438 55.046875 L 164.390625 33.050781 L 160.992188 29.257812 Z M 143.203125 64.75 L 175.398438 49.109375 L 172.847656 44.6875 Z M 148.058594 75.707031 L 182.828125 67.089844 L 181.253906 62.238281 Z M 150.554688 87.445312 L 186.332031 86.25 L 185.796875 81.175781 Z M 150.554688 99.4375 L 185.796875 105.707031 L 186.332031 100.632812 Z M 148.058594 111.175781 L 181.214844 124.632812 L 182.828125 119.796875 Z M 143.179688 122.132812 L 172.828125 142.195312 L 175.378906 137.777344 Z M 136.128906 131.835938 L 160.976562 157.625 L 164.378906 153.835938 Z M 127.203125 139.867188 L 146.160156 170.25 L 150.289062 167.253906 Z M 116.816406 145.863281 L 129.03125 179.519531 L 133.707031 177.445312 Z M 105.40625 149.570312 L 110.332031 185.023438 L 115.355469 183.980469 Z M 93.472656 150.824219 L 90.925781 186.53125 L 96.023438 186.53125 Z M 81.574219 149.570312 L 71.648438 183.980469 L 76.636719 185.035156 Z M 70.164062 145.863281 L 53.308594 177.445312 L 57.984375 179.519531 Z M 59.773438 139.867188 L 36.742188 167.253906 L 40.867188 170.25 Z M 50.847656 131.835938 L 22.625 153.835938 L 26.023438 157.625 Z M 43.796875 122.132812 L 11.617188 137.777344 L 14.167969 142.195312 Z M 38.917969 111.175781 L 4.183594 119.796875 L 5.761719 124.644531 Z M 36.421875 99.4375 L 0.664062 100.632812 L 1.199219 105.707031 Z M 36.421875 87.445312 L 1.199219 81.175781 L 0.664062 86.25 Z M 38.917969 75.707031 L 5.761719 62.25 L 4.183594 67.089844 Z M 43.8125 64.75 L 14.167969 44.6875 L 11.617188 49.109375 Z M 50.851562 55.066406 L 26.039062 29.257812 L 22.636719 33.050781 Z M 59.777344 47.039062 L 40.855469 16.632812 L 36.730469 19.609375 Z M 70.167969 41.039062 L 57.976562 7.363281 L 53.300781 9.4375 Z M 81.574219 37.332031 L 76.648438 1.859375 L 71.648438 2.902344 Z M 90.957031 0.355469 L 96.058594 0.355469 L 93.507812 36.058594 L 90.957031 0.355469 " fill-opacity="1" fill-rule="nonzero"/></g></g></g></g><g fill="#494545" fill-opacity="1"><g transform="translate(77.233696, 148.66545)"><g><path d="M 0.515625 -1.296875 L -10.453125 -5.703125 L -9.4375 -8.234375 L -2.828125 -8.90625 L 0.015625 -9 L 0.046875 -9.0625 C -0.554688 -9.25 -1.234375 -9.445312 -1.984375 -9.65625 C -2.734375 -9.875 -3.429688 -10.113281 -4.078125 -10.375 L -7.953125 -11.9375 L -7 -14.28125 L 3.96875 -9.875 L 2.9375 -7.34375 L -3.671875 -6.671875 L -6.46875 -6.546875 L -6.5 -6.484375 C -5.882812 -6.296875 -5.210938 -6.101562 -4.484375 -5.90625 C -3.753906 -5.707031 -3.066406 -5.476562 -2.421875 -5.21875 L 1.46875 -3.65625 Z M 0.515625 -1.296875 "/></g></g></g><g fill="#494545" fill-opacity="1"><g transform="translate(82.07344, 136.701306)"><g><path d="M 3.125 -5.34375 C 2.75 -4.644531 2.28125 -4.070312 1.71875 -3.625 C 1.15625 -3.1875 0.53125 -2.882812 -0.15625 -2.71875 C -0.851562 -2.5625 -1.597656 -2.546875 -2.390625 -2.671875 C -3.179688 -2.804688 -4 -3.101562 -4.84375 -3.5625 C -5.695312 -4.019531 -6.394531 -4.539062 -6.9375 -5.125 C -7.476562 -5.707031 -7.859375 -6.328125 -8.078125 -6.984375 C -8.304688 -7.648438 -8.382812 -8.335938 -8.3125 -9.046875 C -8.25 -9.753906 -8.03125 -10.457031 -7.65625 -11.15625 C -7.28125 -11.851562 -6.8125 -12.425781 -6.25 -12.875 C -5.695312 -13.320312 -5.082031 -13.632812 -4.40625 -13.8125 C -3.726562 -13.988281 -2.992188 -14.007812 -2.203125 -13.875 C -1.421875 -13.738281 -0.609375 -13.445312 0.234375 -13 C 1.078125 -12.539062 1.769531 -12.019531 2.3125 -11.4375 C 2.863281 -10.851562 3.257812 -10.222656 3.5 -9.546875 C 3.75 -8.867188 3.84375 -8.171875 3.78125 -7.453125 C 3.71875 -6.742188 3.5 -6.039062 3.125 -5.34375 Z M 1.109375 -6.4375 C 1.492188 -7.144531 1.488281 -7.875 1.09375 -8.625 C 0.695312 -9.375 -0.0195312 -10.03125 -1.0625 -10.59375 C -2.113281 -11.15625 -3.039062 -11.382812 -3.84375 -11.28125 C -4.644531 -11.175781 -5.238281 -10.769531 -5.625 -10.0625 C -6.007812 -9.351562 -6.019531 -8.632812 -5.65625 -7.90625 C -5.300781 -7.175781 -4.597656 -6.53125 -3.546875 -5.96875 C -2.503906 -5.40625 -1.5625 -5.164062 -0.71875 -5.25 C 0.113281 -5.332031 0.722656 -5.726562 1.109375 -6.4375 Z M 1.109375 -6.4375 "/></g></g></g><g fill="#494545" fill-opacity="1"><g transform="translate(88.63765, 124.954244)"><g/></g></g><g fill="#494545" fill-opacity="1"><g transform="translate(91.154851, 120.91555)"><g><path d="M 3.15625 -3.890625 C 2.695312 -3.265625 2.125 -2.726562 1.4375 -2.28125 C 0.75 -1.832031 0 -1.539062 -0.8125 -1.40625 L -1.375 -3.71875 C -0.832031 -3.832031 -0.316406 -4.023438 0.171875 -4.296875 C 0.660156 -4.566406 1.054688 -4.90625 1.359375 -5.3125 C 1.691406 -5.75 1.851562 -6.140625 1.84375 -6.484375 C 1.84375 -6.828125 1.707031 -7.101562 1.4375 -7.3125 C 1.28125 -7.425781 1.125 -7.488281 0.96875 -7.5 C 0.820312 -7.519531 0.660156 -7.5 0.484375 -7.4375 C 0.316406 -7.382812 0.132812 -7.296875 -0.0625 -7.171875 C -0.257812 -7.054688 -0.476562 -6.925781 -0.71875 -6.78125 L -2.15625 -5.953125 C -2.4375 -5.785156 -2.738281 -5.640625 -3.0625 -5.515625 C -3.382812 -5.398438 -3.71875 -5.332031 -4.0625 -5.3125 C -4.40625 -5.289062 -4.753906 -5.332031 -5.109375 -5.4375 C -5.460938 -5.539062 -5.816406 -5.722656 -6.171875 -5.984375 C -6.554688 -6.265625 -6.859375 -6.613281 -7.078125 -7.03125 C -7.296875 -7.445312 -7.421875 -7.898438 -7.453125 -8.390625 C -7.484375 -8.890625 -7.421875 -9.398438 -7.265625 -9.921875 C -7.109375 -10.441406 -6.84375 -10.953125 -6.46875 -11.453125 C -6.050781 -12.003906 -5.539062 -12.46875 -4.9375 -12.84375 C -4.332031 -13.21875 -3.671875 -13.453125 -2.953125 -13.546875 L -2.421875 -11.46875 C -2.890625 -11.332031 -3.300781 -11.160156 -3.65625 -10.953125 C -4.019531 -10.742188 -4.34375 -10.453125 -4.625 -10.078125 C -4.894531 -9.703125 -5.035156 -9.347656 -5.046875 -9.015625 C -5.066406 -8.679688 -4.941406 -8.414062 -4.671875 -8.21875 C -4.535156 -8.113281 -4.382812 -8.054688 -4.21875 -8.046875 C -4.0625 -8.046875 -3.894531 -8.082031 -3.71875 -8.15625 C -3.539062 -8.226562 -3.347656 -8.320312 -3.140625 -8.4375 C -2.929688 -8.5625 -2.710938 -8.691406 -2.484375 -8.828125 L -1.078125 -9.671875 C -0.410156 -10.085938 0.242188 -10.304688 0.890625 -10.328125 C 1.546875 -10.359375 2.210938 -10.125 2.890625 -9.625 C 3.273438 -9.332031 3.585938 -8.976562 3.828125 -8.5625 C 4.066406 -8.144531 4.207031 -7.679688 4.25 -7.171875 C 4.289062 -6.660156 4.222656 -6.125 4.046875 -5.5625 C 3.867188 -5 3.570312 -4.441406 3.15625 -3.890625 Z M 3.15625 -3.890625 "/></g></g></g><g fill="#494545" fill-opacity="1"><g transform="translate(97.705114, 112.099253)"><g><path d="M 4.34375 -4.40625 C 3.8125 -3.820312 3.21875 -3.382812 2.5625 -3.09375 C 1.90625 -2.8125 1.222656 -2.675781 0.515625 -2.6875 C -0.191406 -2.695312 -0.914062 -2.863281 -1.65625 -3.1875 C -2.394531 -3.507812 -3.113281 -3.992188 -3.8125 -4.640625 C -4.53125 -5.296875 -5.078125 -5.972656 -5.453125 -6.671875 C -5.828125 -7.378906 -6.039062 -8.082031 -6.09375 -8.78125 C -6.15625 -9.476562 -6.0625 -10.160156 -5.8125 -10.828125 C -5.570312 -11.492188 -5.1875 -12.117188 -4.65625 -12.703125 C -4.101562 -13.296875 -3.503906 -13.738281 -2.859375 -14.03125 C -2.210938 -14.320312 -1.535156 -14.46875 -0.828125 -14.46875 C -0.128906 -14.46875 0.578125 -14.304688 1.296875 -13.984375 C 2.023438 -13.660156 2.742188 -13.171875 3.453125 -12.515625 C 4.148438 -11.867188 4.691406 -11.191406 5.078125 -10.484375 C 5.472656 -9.785156 5.703125 -9.082031 5.765625 -8.375 C 5.835938 -7.664062 5.753906 -6.972656 5.515625 -6.296875 C 5.285156 -5.628906 4.894531 -5 4.34375 -4.40625 Z M 2.65625 -5.953125 C 3.207031 -6.554688 3.382812 -7.265625 3.1875 -8.078125 C 3 -8.898438 2.46875 -9.710938 1.59375 -10.515625 C 0.71875 -11.316406 -0.117188 -11.769531 -0.921875 -11.875 C -1.722656 -11.976562 -2.398438 -11.726562 -2.953125 -11.125 C -3.492188 -10.539062 -3.679688 -9.847656 -3.515625 -9.046875 C -3.359375 -8.253906 -2.84375 -7.457031 -1.96875 -6.65625 C -1.09375 -5.851562 -0.238281 -5.390625 0.59375 -5.265625 C 1.425781 -5.140625 2.113281 -5.367188 2.65625 -5.953125 Z M 2.65625 -5.953125 "/></g></g></g><g fill="#494545" fill-opacity="1"><g transform="translate(106.815977, 102.395712)"><g><path d="M 1.046875 -0.921875 L -6.78125 -9.765625 L -4.78125 -11.53125 L 1.5625 -4.375 L 5.046875 -7.484375 L 6.53125 -5.796875 Z M 1.046875 -0.921875 "/></g></g></g><g fill="#494545" fill-opacity="1"><g transform="translate(114.515782, 95.535103)"><g><path d="M 5.140625 -3.4375 C 4.503906 -2.976562 3.835938 -2.671875 3.140625 -2.515625 C 2.441406 -2.359375 1.742188 -2.359375 1.046875 -2.515625 C 0.359375 -2.671875 -0.3125 -2.984375 -0.96875 -3.453125 C -1.632812 -3.921875 -2.242188 -4.539062 -2.796875 -5.3125 C -3.367188 -6.101562 -3.765625 -6.878906 -3.984375 -7.640625 C -4.210938 -8.410156 -4.285156 -9.140625 -4.203125 -9.828125 C -4.117188 -10.515625 -3.890625 -11.160156 -3.515625 -11.765625 C -3.148438 -12.378906 -2.648438 -12.914062 -2.015625 -13.375 C -1.359375 -13.84375 -0.6875 -14.15625 0 -14.3125 C 0.695312 -14.476562 1.390625 -14.488281 2.078125 -14.34375 C 2.765625 -14.207031 3.429688 -13.90625 4.078125 -13.4375 C 4.734375 -12.96875 5.34375 -12.34375 5.90625 -11.5625 C 6.457031 -10.789062 6.851562 -10.019531 7.09375 -9.25 C 7.332031 -8.488281 7.410156 -7.753906 7.328125 -7.046875 C 7.253906 -6.335938 7.035156 -5.675781 6.671875 -5.0625 C 6.304688 -4.445312 5.796875 -3.90625 5.140625 -3.4375 Z M 3.796875 -5.296875 C 4.460938 -5.773438 4.78125 -6.429688 4.75 -7.265625 C 4.726562 -8.109375 4.375 -9.007812 3.6875 -9.96875 C 2.988281 -10.9375 2.253906 -11.550781 1.484375 -11.8125 C 0.722656 -12.082031 0.0078125 -11.976562 -0.65625 -11.5 C -1.300781 -11.03125 -1.625 -10.390625 -1.625 -9.578125 C -1.625 -8.765625 -1.273438 -7.875 -0.578125 -6.90625 C 0.109375 -5.945312 0.847656 -5.320312 1.640625 -5.03125 C 2.429688 -4.738281 3.148438 -4.828125 3.796875 -5.296875 Z M 3.796875 -5.296875 "/></g></g></g><g fill="#494545" fill-opacity="1"><g transform="translate(125.563021, 87.851867)"><g/></g></g><g fill="#494545" fill-opacity="1"><g transform="translate(129.547871, 85.312488)"><g><path d="M 1.234375 -0.625 L -4.125 -11.15625 L -1.15625 -12.671875 C -0.34375 -13.085938 0.4375 -13.351562 1.1875 -13.46875 C 1.9375 -13.59375 2.648438 -13.554688 3.328125 -13.359375 C 4.015625 -13.171875 4.644531 -12.8125 5.21875 -12.28125 C 5.800781 -11.757812 6.320312 -11.039062 6.78125 -10.125 C 7.238281 -9.226562 7.515625 -8.382812 7.609375 -7.59375 C 7.703125 -6.800781 7.632812 -6.070312 7.40625 -5.40625 C 7.175781 -4.738281 6.800781 -4.132812 6.28125 -3.59375 C 5.757812 -3.0625 5.113281 -2.601562 4.34375 -2.21875 Z M 2.640625 -3.765625 L 3.078125 -4 C 3.535156 -4.226562 3.914062 -4.492188 4.21875 -4.796875 C 4.53125 -5.097656 4.742188 -5.445312 4.859375 -5.84375 C 4.984375 -6.238281 5.007812 -6.6875 4.9375 -7.1875 C 4.863281 -7.695312 4.664062 -8.265625 4.34375 -8.890625 C 4.019531 -9.523438 3.675781 -10.015625 3.3125 -10.359375 C 2.957031 -10.710938 2.585938 -10.953125 2.203125 -11.078125 C 1.816406 -11.203125 1.414062 -11.222656 1 -11.140625 C 0.582031 -11.066406 0.144531 -10.914062 -0.3125 -10.6875 L -0.75 -10.453125 Z M 2.640625 -3.765625 "/></g></g></g><g fill="#494545" fill-opacity="1"><g transform="translate(140.665916, 79.744597)"><g><path d="M 1.296875 -0.5 L -2.984375 -11.515625 L 3.90625 -14.203125 L 4.71875 -12.09375 L 0.3125 -10.375 L 1.171875 -8.171875 L 4.921875 -9.625 L 5.734375 -7.546875 L 1.984375 -6.09375 L 2.96875 -3.5625 L 7.546875 -5.34375 L 8.359375 -3.25 Z M 1.296875 -0.5 "/></g></g></g><g fill="#494545" fill-opacity="1"><g transform="translate(150.821555, 75.826665)"><g><path d="M 6.140625 -1.515625 C 5.421875 -1.304688 4.703125 -1.238281 3.984375 -1.3125 C 3.273438 -1.382812 2.613281 -1.59375 2 -1.9375 C 1.382812 -2.289062 0.832031 -2.789062 0.34375 -3.4375 C -0.132812 -4.082031 -0.507812 -4.878906 -0.78125 -5.828125 C -1.050781 -6.765625 -1.144531 -7.644531 -1.0625 -8.46875 C -0.976562 -9.289062 -0.757812 -10.023438 -0.40625 -10.671875 C -0.0625 -11.328125 0.390625 -11.878906 0.953125 -12.328125 C 1.523438 -12.785156 2.175781 -13.113281 2.90625 -13.3125 C 3.632812 -13.519531 4.328125 -13.554688 4.984375 -13.421875 C 5.648438 -13.285156 6.234375 -13.078125 6.734375 -12.796875 L 5.828125 -10.78125 C 5.472656 -10.96875 5.109375 -11.097656 4.734375 -11.171875 C 4.367188 -11.242188 3.984375 -11.222656 3.578125 -11.109375 C 3.203125 -11.003906 2.863281 -10.816406 2.5625 -10.546875 C 2.257812 -10.285156 2.023438 -9.960938 1.859375 -9.578125 C 1.703125 -9.191406 1.613281 -8.753906 1.59375 -8.265625 C 1.582031 -7.773438 1.65625 -7.242188 1.8125 -6.671875 C 2.144531 -5.492188 2.65625 -4.648438 3.34375 -4.140625 C 4.03125 -3.640625 4.789062 -3.507812 5.625 -3.75 C 6.09375 -3.875 6.476562 -4.085938 6.78125 -4.390625 C 7.09375 -4.703125 7.347656 -5.050781 7.546875 -5.4375 L 9.359375 -4.203125 C 8.710938 -2.828125 7.640625 -1.929688 6.140625 -1.515625 Z M 6.140625 -1.515625 "/></g></g></g><g fill="#494545" fill-opacity="1"><g transform="translate(162.034034, 72.808771)"><g><path d="M 1.359375 -0.265625 L -0.953125 -11.84375 L 1.671875 -12.375 L 3.984375 -0.796875 Z M 1.359375 -0.265625 "/></g></g></g><g fill="#494545" fill-opacity="1"><g transform="translate(168.33182, 71.402933)"><g><path d="M 1.390625 -0.140625 L 0.140625 -11.890625 L 3.03125 -12.203125 L 5.5 -7.1875 C 5.644531 -6.84375 5.789062 -6.488281 5.9375 -6.125 C 6.09375 -5.769531 6.25 -5.421875 6.40625 -5.078125 L 6.453125 -5.078125 C 6.546875 -5.453125 6.625 -5.832031 6.6875 -6.21875 C 6.75 -6.601562 6.820312 -6.976562 6.90625 -7.34375 L 8.203125 -12.75 L 11.09375 -13.0625 L 12.34375 -1.3125 L 9.921875 -1.0625 L 9.46875 -5.359375 C 9.4375 -5.648438 9.410156 -5.96875 9.390625 -6.3125 C 9.378906 -6.664062 9.367188 -7.019531 9.359375 -7.375 C 9.359375 -7.738281 9.359375 -8.085938 9.359375 -8.421875 C 9.359375 -8.765625 9.367188 -9.085938 9.390625 -9.390625 L 9.3125 -9.375 L 8.65625 -6.5 L 7.453125 -1.84375 L 6 -1.6875 L 3.828125 -5.984375 L 2.625 -8.671875 L 2.546875 -8.65625 C 2.609375 -8.375 2.675781 -8.0625 2.75 -7.71875 C 2.820312 -7.382812 2.894531 -7.039062 2.96875 -6.6875 C 3.050781 -6.34375 3.117188 -6 3.171875 -5.65625 C 3.234375 -5.3125 3.28125 -4.992188 3.3125 -4.703125 L 3.765625 -0.40625 Z M 1.390625 -0.140625 "/></g></g></g><g fill="#494545" fill-opacity="1"><g transform="translate(182.873445, 69.946966)"><g><path d="M 6.1875 0.296875 C 5.394531 0.285156 4.671875 0.132812 4.015625 -0.15625 C 3.367188 -0.445312 2.8125 -0.863281 2.34375 -1.40625 C 1.875 -1.945312 1.515625 -2.597656 1.265625 -3.359375 C 1.015625 -4.117188 0.894531 -4.976562 0.90625 -5.9375 C 0.914062 -6.90625 1.054688 -7.765625 1.328125 -8.515625 C 1.597656 -9.273438 1.972656 -9.90625 2.453125 -10.40625 C 2.941406 -10.90625 3.515625 -11.289062 4.171875 -11.5625 C 4.828125 -11.832031 5.550781 -11.960938 6.34375 -11.953125 C 7.144531 -11.941406 7.875 -11.789062 8.53125 -11.5 C 9.1875 -11.21875 9.742188 -10.816406 10.203125 -10.296875 C 10.671875 -9.773438 11.023438 -9.132812 11.265625 -8.375 C 11.515625 -7.613281 11.632812 -6.753906 11.625 -5.796875 C 11.613281 -4.835938 11.472656 -3.976562 11.203125 -3.21875 C 10.941406 -2.46875 10.570312 -1.828125 10.09375 -1.296875 C 9.613281 -0.773438 9.039062 -0.375 8.375 -0.09375 C 7.71875 0.175781 6.988281 0.304688 6.1875 0.296875 Z M 6.21875 -2 C 7.03125 -1.988281 7.675781 -2.328125 8.15625 -3.015625 C 8.632812 -3.703125 8.878906 -4.640625 8.890625 -5.828125 C 8.910156 -7.015625 8.6875 -7.941406 8.21875 -8.609375 C 7.757812 -9.285156 7.125 -9.628906 6.3125 -9.640625 C 5.507812 -9.648438 4.867188 -9.328125 4.390625 -8.671875 C 3.910156 -8.015625 3.660156 -7.09375 3.640625 -5.90625 C 3.628906 -4.71875 3.851562 -3.769531 4.3125 -3.0625 C 4.78125 -2.363281 5.414062 -2.007812 6.21875 -2 Z M 6.21875 -2 "/></g></g></g><g fill="#494545" fill-opacity="1"><g transform="translate(196.164782, 70.232609)"><g><path d="M 4.9375 0.8125 C 4.164062 0.71875 3.414062 0.484375 2.6875 0.109375 C 1.96875 -0.265625 1.34375 -0.765625 0.8125 -1.390625 L 2.53125 -3.046875 C 2.90625 -2.628906 3.332031 -2.273438 3.8125 -1.984375 C 4.300781 -1.691406 4.796875 -1.519531 5.296875 -1.46875 C 5.835938 -1.40625 6.253906 -1.460938 6.546875 -1.640625 C 6.835938 -1.816406 7.003906 -2.078125 7.046875 -2.421875 C 7.066406 -2.597656 7.046875 -2.753906 6.984375 -2.890625 C 6.921875 -3.023438 6.820312 -3.15625 6.6875 -3.28125 C 6.550781 -3.40625 6.382812 -3.523438 6.1875 -3.640625 C 5.988281 -3.753906 5.769531 -3.878906 5.53125 -4.015625 L 4.078125 -4.84375 C 3.796875 -5 3.519531 -5.1875 3.25 -5.40625 C 2.988281 -5.632812 2.757812 -5.890625 2.5625 -6.171875 C 2.375 -6.460938 2.238281 -6.785156 2.15625 -7.140625 C 2.070312 -7.503906 2.054688 -7.898438 2.109375 -8.328125 C 2.160156 -8.804688 2.3125 -9.242188 2.5625 -9.640625 C 2.8125 -10.035156 3.140625 -10.375 3.546875 -10.65625 C 3.960938 -10.9375 4.429688 -11.132812 4.953125 -11.25 C 5.484375 -11.375 6.0625 -11.398438 6.6875 -11.328125 C 7.363281 -11.242188 8.015625 -11.03125 8.640625 -10.6875 C 9.273438 -10.34375 9.820312 -9.890625 10.28125 -9.328125 L 8.734375 -7.8125 C 8.378906 -8.15625 8.019531 -8.429688 7.65625 -8.640625 C 7.289062 -8.847656 6.878906 -8.976562 6.421875 -9.03125 C 5.960938 -9.082031 5.582031 -9.03125 5.28125 -8.875 C 4.988281 -8.71875 4.820312 -8.472656 4.78125 -8.140625 C 4.757812 -7.960938 4.785156 -7.800781 4.859375 -7.65625 C 4.941406 -7.519531 5.054688 -7.394531 5.203125 -7.28125 C 5.359375 -7.175781 5.539062 -7.0625 5.75 -6.9375 C 5.957031 -6.820312 6.179688 -6.695312 6.421875 -6.5625 L 7.84375 -5.765625 C 8.53125 -5.390625 9.050781 -4.925781 9.40625 -4.375 C 9.757812 -3.820312 9.890625 -3.128906 9.796875 -2.296875 C 9.734375 -1.816406 9.578125 -1.363281 9.328125 -0.9375 C 9.078125 -0.519531 8.742188 -0.171875 8.328125 0.109375 C 7.921875 0.390625 7.425781 0.59375 6.84375 0.71875 C 6.257812 0.851562 5.625 0.882812 4.9375 0.8125 Z M 4.9375 0.8125 "/></g></g></g><g fill="#494545" fill-opacity="1"><g transform="translate(207.225517, 71.669492)"><g><path d="M 0.671875 3.71875 L 0.40625 2.203125 C 1.125 2.109375 1.691406 1.90625 2.109375 1.59375 C 2.523438 1.28125 2.769531 0.894531 2.84375 0.4375 L 2.703125 0.421875 C 2.273438 0.335938 1.929688 0.140625 1.671875 -0.171875 C 1.410156 -0.492188 1.328125 -0.890625 1.421875 -1.359375 C 1.503906 -1.804688 1.726562 -2.132812 2.09375 -2.34375 C 2.46875 -2.5625 2.882812 -2.628906 3.34375 -2.546875 C 3.9375 -2.429688 4.34375 -2.125 4.5625 -1.625 C 4.78125 -1.132812 4.8125 -0.492188 4.65625 0.296875 C 4.46875 1.273438 4.03125 2.0625 3.34375 2.65625 C 2.664062 3.257812 1.773438 3.613281 0.671875 3.71875 Z M 0.671875 3.71875 "/></g></g></g><g fill="#494545" fill-opacity="1"><g transform="translate(213.777508, 73.008716)"><g/></g></g><g fill="#494545" fill-opacity="1"><g transform="translate(218.427922, 74.102988)"><g><path d="M 1.328125 0.421875 L 4.921875 -10.828125 L 7.46875 -10.015625 L 4.5625 -0.90625 L 9.015625 0.515625 L 8.328125 2.65625 Z M 1.328125 0.421875 "/></g></g></g><g fill="#494545" fill-opacity="1"><g transform="translate(228.260682, 77.211274)"><g><path d="M 5.578125 2.671875 C 4.847656 2.359375 4.238281 1.9375 3.75 1.40625 C 3.269531 0.875 2.914062 0.273438 2.6875 -0.390625 C 2.46875 -1.066406 2.390625 -1.804688 2.453125 -2.609375 C 2.523438 -3.410156 2.753906 -4.25 3.140625 -5.125 C 3.523438 -6.019531 3.984375 -6.757812 4.515625 -7.34375 C 5.054688 -7.9375 5.644531 -8.367188 6.28125 -8.640625 C 6.925781 -8.921875 7.601562 -9.054688 8.3125 -9.046875 C 9.019531 -9.035156 9.738281 -8.875 10.46875 -8.5625 C 11.207031 -8.238281 11.820312 -7.816406 12.3125 -7.296875 C 12.800781 -6.785156 13.160156 -6.203125 13.390625 -5.546875 C 13.628906 -4.890625 13.710938 -4.160156 13.640625 -3.359375 C 13.578125 -2.566406 13.351562 -1.726562 12.96875 -0.84375 C 12.582031 0.03125 12.117188 0.765625 11.578125 1.359375 C 11.046875 1.953125 10.453125 2.394531 9.796875 2.6875 C 9.148438 2.988281 8.46875 3.140625 7.75 3.140625 C 7.039062 3.148438 6.316406 2.992188 5.578125 2.671875 Z M 6.5 0.5625 C 7.25 0.882812 7.976562 0.816406 8.6875 0.359375 C 9.394531 -0.0859375 9.984375 -0.851562 10.453125 -1.9375 C 10.921875 -3.03125 11.070312 -3.972656 10.90625 -4.765625 C 10.75 -5.554688 10.296875 -6.113281 9.546875 -6.4375 C 8.816406 -6.757812 8.097656 -6.710938 7.390625 -6.296875 C 6.691406 -5.878906 6.109375 -5.125 5.640625 -4.03125 C 5.171875 -2.945312 5.015625 -1.988281 5.171875 -1.15625 C 5.328125 -0.332031 5.769531 0.238281 6.5 0.5625 Z M 6.5 0.5625 "/></g></g></g><g fill="#494545" fill-opacity="1"><g transform="translate(240.513442, 82.773732)"><g/></g></g><g fill="#494545" fill-opacity="1"><g transform="translate(244.729105, 84.872018)"><g><path d="M 1.171875 0.75 L 7.5 -9.21875 L 9.765625 -7.796875 L 7.328125 -3.96875 L 10.75 -1.78125 L 13.1875 -5.609375 L 15.453125 -4.171875 L 9.125 5.796875 L 6.859375 4.359375 L 9.5 0.203125 L 6.078125 -1.984375 L 3.4375 2.171875 Z M 1.171875 0.75 "/></g></g></g><g fill="#494545" fill-opacity="1"><g transform="translate(255.747363, 91.977326)"><g><path d="M 6.96875 -2.078125 L 6.0625 -1.421875 L 8.046875 0.140625 L 8.5 -0.875 C 8.75 -1.4375 9.015625 -2.03125 9.296875 -2.65625 C 9.578125 -3.28125 9.851562 -3.882812 10.125 -4.46875 L 10.0625 -4.5 C 9.570312 -4.101562 9.0625 -3.691406 8.53125 -3.265625 C 8 -2.835938 7.476562 -2.441406 6.96875 -2.078125 Z M -0.078125 -0.0625 L 10.140625 -7.03125 L 12.671875 -5.03125 L 8.21875 6.515625 L 6 4.75 L 7.1875 2.109375 L 4.359375 -0.140625 L 2.046875 1.625 Z M -0.078125 -0.0625 "/></g></g></g><g fill="#494545" fill-opacity="1"><g transform="translate(264.597785, 99.043807)"><g><path d="M 4.390625 4.546875 C 3.847656 4.023438 3.425781 3.4375 3.125 2.78125 C 2.832031 2.132812 2.679688 1.457031 2.671875 0.75 C 2.660156 0.0390625 2.8125 -0.679688 3.125 -1.421875 C 3.445312 -2.171875 3.953125 -2.898438 4.640625 -3.609375 C 5.316406 -4.316406 6.03125 -4.84375 6.78125 -5.1875 C 7.539062 -5.53125 8.285156 -5.710938 9.015625 -5.734375 C 9.742188 -5.765625 10.445312 -5.644531 11.125 -5.375 C 11.8125 -5.113281 12.425781 -4.722656 12.96875 -4.203125 C 13.507812 -3.671875 13.890625 -3.082031 14.109375 -2.4375 C 14.328125 -1.800781 14.4375 -1.195312 14.4375 -0.625 L 12.234375 -0.375 C 12.222656 -0.789062 12.15625 -1.175781 12.03125 -1.53125 C 11.90625 -1.882812 11.695312 -2.203125 11.40625 -2.484375 C 11.113281 -2.765625 10.78125 -2.96875 10.40625 -3.09375 C 10.03125 -3.226562 9.632812 -3.265625 9.21875 -3.203125 C 8.800781 -3.140625 8.375 -2.992188 7.9375 -2.765625 C 7.507812 -2.546875 7.085938 -2.222656 6.671875 -1.796875 C 5.828125 -0.910156 5.359375 -0.046875 5.265625 0.796875 C 5.171875 1.640625 5.4375 2.363281 6.0625 2.96875 C 6.40625 3.300781 6.789062 3.523438 7.21875 3.640625 C 7.644531 3.753906 8.070312 3.796875 8.5 3.765625 L 8.34375 5.953125 C 6.820312 6.097656 5.503906 5.628906 4.390625 4.546875 Z M 4.390625 4.546875 "/></g></g></g><g fill="#494545" fill-opacity="1"><g transform="translate(272.825123, 107.079397)"><g><path d="M 0.90625 1.0625 L 9.890625 -6.609375 L 14.6875 -1 L 12.96875 0.46875 L 9.90625 -3.109375 L 8.109375 -1.578125 L 10.71875 1.46875 L 9.03125 2.921875 L 6.421875 -0.125 L 4.359375 1.640625 L 7.546875 5.375 L 5.828125 6.828125 Z M 0.90625 1.0625 "/></g></g></g><g fill="#494545" fill-opacity="1"><g transform="translate(279.887116, 115.260397)"><g><path d="M 0.78125 1.15625 L 10.546875 -5.484375 L 12.1875 -3.078125 L 8.921875 1.453125 C 8.691406 1.742188 8.453125 2.039062 8.203125 2.34375 C 7.960938 2.644531 7.734375 2.953125 7.515625 3.265625 L 7.546875 3.3125 C 7.910156 3.207031 8.273438 3.09375 8.640625 2.96875 C 9.003906 2.84375 9.363281 2.726562 9.71875 2.625 L 15.109375 1.21875 L 16.734375 3.625 L 6.96875 10.265625 L 5.609375 8.25 L 9.1875 5.8125 C 9.425781 5.65625 9.695312 5.488281 10 5.3125 C 10.3125 5.132812 10.617188 4.960938 10.921875 4.796875 C 11.234375 4.628906 11.539062 4.457031 11.84375 4.28125 C 12.144531 4.113281 12.4375 3.972656 12.71875 3.859375 L 12.671875 3.78125 L 9.828125 4.5625 L 5.140625 5.71875 L 4.3125 4.5 L 7.09375 0.5625 L 8.890625 -1.78125 L 8.84375 -1.84375 C 8.613281 -1.65625 8.367188 -1.445312 8.109375 -1.21875 C 7.847656 -0.988281 7.582031 -0.757812 7.3125 -0.53125 C 7.039062 -0.300781 6.765625 -0.0820312 6.484375 0.125 C 6.203125 0.34375 5.941406 0.53125 5.703125 0.6875 L 2.125 3.125 Z M 0.78125 1.15625 "/></g></g></g><g fill="#494545" fill-opacity="1"><g transform="translate(288.027415, 127.400116)"><g><path d="M 2.65625 5.59375 C 2.289062 4.882812 2.082031 4.171875 2.03125 3.453125 C 1.976562 2.742188 2.078125 2.054688 2.328125 1.390625 C 2.585938 0.722656 2.992188 0.101562 3.546875 -0.46875 C 4.109375 -1.050781 4.8125 -1.5625 5.65625 -2 C 6.519531 -2.445312 7.347656 -2.726562 8.140625 -2.84375 C 8.929688 -2.96875 9.660156 -2.9375 10.328125 -2.75 C 11.003906 -2.5625 11.613281 -2.238281 12.15625 -1.78125 C 12.707031 -1.320312 13.164062 -0.738281 13.53125 -0.03125 C 13.894531 0.675781 14.101562 1.382812 14.15625 2.09375 C 14.21875 2.800781 14.128906 3.484375 13.890625 4.140625 C 13.648438 4.804688 13.253906 5.425781 12.703125 6 C 12.148438 6.570312 11.445312 7.078125 10.59375 7.515625 C 9.75 7.953125 8.925781 8.234375 8.125 8.359375 C 7.332031 8.484375 6.585938 8.457031 5.890625 8.28125 C 5.203125 8.101562 4.582031 7.785156 4.03125 7.328125 C 3.476562 6.878906 3.019531 6.300781 2.65625 5.59375 Z M 4.6875 4.546875 C 5.0625 5.265625 5.664062 5.671875 6.5 5.765625 C 7.332031 5.859375 8.273438 5.632812 9.328125 5.09375 C 10.390625 4.539062 11.101562 3.90625 11.46875 3.1875 C 11.84375 2.46875 11.84375 1.75 11.46875 1.03125 C 11.101562 0.3125 10.519531 -0.101562 9.71875 -0.21875 C 8.914062 -0.34375 7.984375 -0.128906 6.921875 0.421875 C 5.867188 0.960938 5.140625 1.601562 4.734375 2.34375 C 4.335938 3.09375 4.320312 3.828125 4.6875 4.546875 Z M 4.6875 4.546875 "/></g></g></g><g fill="#494545" fill-opacity="1"><g transform="translate(294.046049, 139.252606)"><g><path d="M 1.625 4.734375 C 1.34375 4.015625 1.191406 3.242188 1.171875 2.421875 C 1.160156 1.609375 1.304688 0.816406 1.609375 0.046875 L 3.859375 0.796875 C 3.679688 1.316406 3.578125 1.859375 3.546875 2.421875 C 3.523438 2.984375 3.609375 3.5 3.796875 3.96875 C 3.992188 4.476562 4.238281 4.820312 4.53125 5 C 4.820312 5.175781 5.128906 5.203125 5.453125 5.078125 C 5.628906 5.003906 5.757812 4.90625 5.84375 4.78125 C 5.9375 4.664062 6.003906 4.519531 6.046875 4.34375 C 6.085938 4.164062 6.109375 3.960938 6.109375 3.734375 C 6.117188 3.503906 6.132812 3.253906 6.15625 2.984375 L 6.1875 1.328125 C 6.195312 0.992188 6.238281 0.65625 6.3125 0.3125 C 6.382812 -0.0195312 6.5 -0.335938 6.65625 -0.640625 C 6.820312 -0.941406 7.039062 -1.21875 7.3125 -1.46875 C 7.582031 -1.71875 7.921875 -1.921875 8.328125 -2.078125 C 8.773438 -2.253906 9.234375 -2.328125 9.703125 -2.296875 C 10.179688 -2.265625 10.632812 -2.128906 11.0625 -1.890625 C 11.5 -1.660156 11.894531 -1.335938 12.25 -0.921875 C 12.613281 -0.515625 12.910156 -0.0195312 13.140625 0.5625 C 13.390625 1.195312 13.507812 1.875 13.5 2.59375 C 13.5 3.3125 13.359375 4 13.078125 4.65625 L 11 4.015625 C 11.144531 3.535156 11.21875 3.085938 11.21875 2.671875 C 11.226562 2.253906 11.148438 1.832031 10.984375 1.40625 C 10.816406 0.976562 10.597656 0.664062 10.328125 0.46875 C 10.054688 0.28125 9.765625 0.25 9.453125 0.375 C 9.285156 0.4375 9.15625 0.535156 9.0625 0.671875 C 8.976562 0.804688 8.921875 0.96875 8.890625 1.15625 C 8.859375 1.34375 8.835938 1.554688 8.828125 1.796875 C 8.816406 2.035156 8.8125 2.285156 8.8125 2.546875 L 8.78125 4.203125 C 8.789062 4.984375 8.628906 5.660156 8.296875 6.234375 C 7.972656 6.804688 7.425781 7.242188 6.65625 7.546875 C 6.195312 7.722656 5.722656 7.800781 5.234375 7.78125 C 4.753906 7.757812 4.285156 7.628906 3.828125 7.390625 C 3.378906 7.160156 2.960938 6.820312 2.578125 6.375 C 2.191406 5.925781 1.875 5.378906 1.625 4.734375 Z M 1.625 4.734375 "/></g></g></g><g clip-path="url(#6b44ad3f86)"><g clip-path="url(#5b7ad96a1d)"><g clip-path="url(#a881200722)"><g clip-path="url(#3cd71ff7b5)"><path fill="#000000" d="M 255.238281 250.980469 C 254.078125 251.054688 252.839844 251.058594 251.5625 251 C 249.914062 250.921875 248.476562 250.84375 247.152344 250.769531 C 242.71875 250.523438 239.789062 250.359375 235.15625 250.65625 C 230.300781 250.964844 223.675781 251.785156 212.289062 253.484375 C 212.066406 253.519531 211.839844 253.542969 211.617188 253.558594 C 209.199219 253.710938 206.917969 252.773438 205.351562 250.976562 C 202.722656 247.957031 199.214844 241.71875 203.101562 232.375 C 199.238281 234.519531 195.507812 235.941406 191.980469 236.625 C 190.449219 236.917969 189.039062 237.109375 187.785156 237.1875 C 184.519531 237.398438 182.03125 236.910156 180.023438 235.652344 C 178.015625 238.121094 172.988281 242.417969 162.035156 243.121094 C 161.480469 243.15625 160.875 243.179688 160.1875 243.199219 C 157.472656 243.265625 154.683594 242.121094 151.886719 239.792969 C 150.015625 241.261719 145.382812 244.152344 137.394531 244.664062 C 135.792969 244.765625 134.117188 244.765625 132.410156 244.664062 C 126.050781 244.289062 120.15625 236.988281 114.890625 222.957031 C 111.007812 212.609375 108.394531 200.878906 107.660156 195.910156 C 106.773438 189.9375 106.398438 188.917969 105.390625 186.203125 L 105.316406 186.011719 C 104.882812 184.835938 104.347656 183.378906 103.625 181.15625 C 100.699219 172.132812 112.101562 161.847656 115.96875 159.964844 C 119.78125 158.109375 122.09375 156.09375 123.707031 153.210938 C 125.46875 150.0625 130.632812 144.46875 136.117188 142.457031 C 137.191406 142.0625 138.246094 141.785156 139.363281 141.492188 L 139.535156 141.449219 C 143.53125 140.40625 147.304688 139.425781 151.203125 133.710938 C 156.359375 126.152344 165.644531 122.996094 172.03125 122.585938 C 173.246094 122.507812 174.425781 122.519531 175.53125 122.625 C 175.96875 122.667969 176.378906 122.707031 176.765625 122.746094 L 177.277344 122.800781 C 179.464844 123.023438 181.035156 123.183594 183.605469 123.019531 C 187.628906 122.761719 193.988281 121.707031 207.066406 119.128906 C 208.679688 118.8125 210.289062 118.601562 211.84375 118.5 C 221.375 117.890625 229.78125 121.351562 236.84375 128.789062 C 237.875 129.871094 238.859375 131.027344 239.777344 132.210938 L 239.949219 132.441406 L 239.949219 132.445312 C 246.113281 140.523438 248.871094 149.617188 249.78125 153.175781 C 250.703125 156.804688 251.523438 160.257812 252.21875 163.441406 C 252.996094 164.742188 257.484375 171.914062 264.214844 176.78125 C 273.027344 183.144531 277.007812 191.402344 275.128906 199.441406 C 273.199219 207.683594 270.054688 226.425781 269.367188 235.035156 C 268.777344 242.351562 267.152344 250.214844 255.238281 250.980469 Z M 255.238281 250.980469 " fill-opacity="1" fill-rule="nonzero"/></g></g></g></g><g clip-path="url(#29ba8be61a)"><g clip-path="url(#36acd669d5)"><g clip-path="url(#5df1439eed)"><g clip-path="url(#358df4485e)"><path fill="#ffffff" d="M 236.910156 174.742188 C 236.910156 174.742188 244.410156 168.382812 243.03125 167.003906 C 241.65625 165.621094 235.378906 169.421875 235.378906 169.421875 C 235.378906 169.421875 240.175781 164.0625 242.207031 161.269531 C 244.230469 158.480469 238.800781 134.089844 238.78125 134.003906 C 234.898438 128.691406 229.601562 123.816406 222.53125 121.582031 C 187.34375 120.5625 198.515625 153.503906 198.515625 153.503906 C 190.878906 154.726562 183.929688 146.71875 178.628906 141.363281 C 173.320312 136.007812 168.507812 132.550781 159.714844 135.957031 C 150.929688 139.371094 149.234375 153.078125 149.234375 153.078125 C 136.636719 150.023438 132.429688 156.078125 130.753906 161.515625 C 130.589844 162.050781 130.546875 162.621094 130.601562 163.21875 C 130.601562 163.21875 131.109375 171.085938 139.789062 176.28125 C 130.179688 176.898438 125.453125 166.265625 125.453125 166.265625 C 121.734375 166.960938 112.738281 170.015625 113.011719 177.171875 C 113.285156 184.316406 122.820312 189.617188 122.820312 189.617188 C 123.082031 189.714844 129.199219 192.054688 130.890625 194.625 L 130.953125 194.746094 C 131.089844 195.214844 144.902344 241.699219 160.140625 241.320312 C 173.066406 240.992188 177.890625 235.46875 179.089844 233.734375 C 178.480469 233.148438 177.929688 232.472656 177.410156 231.714844 C 174.859375 228.089844 170.609375 228.507812 170.609375 228.507812 C 158.648438 229.734375 155.960938 237.992188 155.960938 237.992188 C 155.660156 236.171875 155.980469 232.566406 160.265625 229.171875 C 164.550781 225.773438 165.445312 222.5 164.089844 208.53125 C 162.738281 194.5625 157.234375 186.183594 157.234375 186.183594 C 157.234375 186.183594 143.03125 179.5625 144.445312 177.269531 C 145.859375 174.972656 153.824219 177.519531 153.824219 177.519531 C 154.039062 177.589844 159.078125 179.308594 161.773438 183.269531 L 161.820312 183.332031 L 161.839844 183.410156 C 161.9375 183.761719 171.476562 218.65625 175.183594 225.820312 L 175.519531 226.46875 C 179.085938 233.382812 180.875 236.851562 191.625 234.78125 C 194.988281 234.136719 198.238281 232.824219 201.140625 231.304688 C 207.230469 227.734375 207.648438 221.449219 207.648438 221.449219 C 204.164062 224.894531 198.011719 227.394531 198.011719 227.394531 C 203.15625 224.492188 204.3125 218.167969 204.3125 218.167969 C 201.113281 221.308594 196.726562 223.070312 196.726562 223.070312 C 208.460938 214.113281 202.980469 190.410156 201.433594 184.65625 C 193.738281 180.066406 178.46875 169.894531 181.308594 167.46875 C 184.445312 164.78125 193.699219 168.363281 193.699219 168.363281 C 193.996094 168.480469 200.902344 171.363281 202.753906 176.714844 C 203.257812 178.171875 203.945312 182.386719 204.816406 187.71875 C 206.914062 200.5625 210.820312 224.46875 215.664062 225.539062 C 222.792969 227.113281 238.808594 224.792969 241.988281 217.476562 C 245.414062 209.585938 247.652344 191.960938 247.082031 183.070312 L 246.296875 170.804688 C 243.746094 172.769531 236.910156 174.742188 236.910156 174.742188 Z M 124.6875 184.933594 C 126.511719 186.921875 130.261719 189.183594 130.261719 189.183594 C 117.875 187.082031 115.609375 176.605469 115.609375 176.605469 C 122.457031 182.167969 130.640625 185.5625 130.640625 185.5625 C 127.210938 185.539062 124.6875 184.933594 124.6875 184.933594 Z M 175.808594 233.6875 C 164.96875 235.117188 159.335938 239.0625 159.335938 239.0625 C 164.710938 229.710938 175.808594 233.6875 175.808594 233.6875 Z M 157.785156 227.765625 C 157.785156 227.765625 153.6875 231.203125 153.96875 235.546875 C 153.96875 235.546875 149.582031 230.21875 157.785156 227.765625 Z M 155.984375 154.664062 C 156.675781 148.25 161.023438 143.4375 161.023438 143.4375 C 156.855469 145.128906 154.816406 147.605469 154.691406 147.753906 C 154.789062 147.46875 157.402344 140.085938 164.476562 138.074219 C 171.695312 136.015625 175.496094 143.617188 175.496094 143.617188 C 162.167969 140.304688 155.984375 154.664062 155.984375 154.664062 Z M 199.1875 186.941406 C 199.1875 186.941406 203.972656 207.078125 198.867188 214.941406 C 198.867188 214.941406 200.28125 206.859375 196.261719 195.71875 C 196.261719 195.71875 197.128906 200.722656 195.589844 205.316406 C 195.589844 205.316406 193.71875 191.933594 187.210938 179.304688 C 191.097656 182.199219 195.0625 184.828125 199.1875 186.941406 Z M 196.097656 226.152344 C 190.949219 234.765625 182.285156 230.054688 182.285156 230.054688 C 191.539062 229.648438 196.097656 226.152344 196.097656 226.152344 Z M 200.617188 143.679688 C 200.617188 143.679688 200.050781 123.425781 222.746094 124.789062 C 222.746094 124.789062 212.925781 127.375 209.074219 132.28125 C 209.074219 132.28125 212.992188 130.3125 220.207031 130.09375 C 220.207031 130.09375 208.523438 133.203125 200.617188 143.679688 Z M 201.4375 147.832031 C 201.4375 147.832031 205.828125 140.941406 213.011719 138.273438 C 213.011719 138.273438 209.683594 145.46875 201.4375 147.832031 Z M 232.691406 217.917969 C 235.34375 217.746094 239.5 216.652344 239.5 216.652344 C 227.335938 226.417969 215.429688 220.953125 215.429688 220.953125 C 224.394531 220.378906 226.347656 219.335938 226.347656 219.335938 C 222.085938 218.78125 218.417969 215.984375 218.417969 215.984375 C 234.503906 214.410156 241.886719 210.28125 242.113281 210.152344 C 238.980469 214.816406 232.691406 217.917969 232.691406 217.917969 Z M 223.269531 212.851562 C 231.695312 208.085938 241.9375 207.339844 241.9375 207.339844 C 236.335938 210.273438 223.269531 212.851562 223.269531 212.851562 Z M 179.882812 129.925781 C 185.007812 131.492188 195.648438 132.097656 192.054688 128.652344 C 188.601562 125.339844 181.765625 124.980469 181.246094 124.957031 C 179.796875 124.9375 178.566406 124.816406 177.085938 124.660156 C 176.761719 124.628906 176.425781 124.59375 176.082031 124.5625 C 168.121094 123.84375 174.765625 128.351562 179.882812 129.925781 Z M 248.015625 183.011719 C 248.175781 185.496094 248.128906 188.625 247.898438 192.023438 C 254.5625 187.300781 252.703125 176.0625 252.703125 176.0625 C 252.6875 175.988281 251.707031 168.75 248.53125 155.894531 C 244.652344 157.695312 246.640625 162.25 246.640625 162.25 L 247 162.941406 L 247 162.953125 C 248.847656 166.882812 247.546875 170.300781 247.246094 170.988281 Z M 133.203125 239.96875 C 137.101562 234.820312 146.367188 235.023438 146.367188 235.023438 C 137.203125 230.585938 129.566406 238.605469 129.566406 238.605469 C 129.722656 235.308594 130.988281 233.140625 132.0625 231.652344 C 133.988281 228.976562 130.023438 219.921875 125.84375 211.964844 L 129.761719 208.058594 L 124.277344 208.410156 L 127.722656 204.976562 L 122.324219 205.324219 L 126.261719 201.394531 L 120.507812 201.761719 L 124.214844 198.070312 L 118.488281 198.4375 L 122.164062 194.773438 L 116.058594 195.164062 C 114.414062 192.636719 112.378906 189.640625 112.03125 189.574219 C 109.199219 188.988281 109.371094 193.9375 109.4375 195.003906 C 109.445312 195.132812 109.449219 195.203125 109.449219 195.203125 C 109.472656 195.34375 109.492188 195.488281 109.515625 195.636719 C 110.640625 203.234375 119.171875 242.003906 132.523438 242.792969 C 139.515625 243.199219 144.433594 241.714844 147.507812 240.242188 C 141.398438 236.507812 133.203125 239.96875 133.203125 239.96875 Z M 265.828125 180.460938 C 262.828125 178.273438 259.214844 180.664062 259.605469 187.652344 C 259.941406 193.53125 259.046875 204.019531 257.046875 211.65625 L 257.050781 211.65625 C 254.363281 223.570312 255.484375 233.730469 255.484375 233.730469 L 248.566406 223.332031 L 250.578125 234.6875 L 245.332031 223 L 246.515625 234.304688 L 242.949219 223.152344 L 241.753906 234.609375 L 239.632812 223.214844 L 237.28125 233.609375 L 236.261719 223.78125 C 232.4375 225.59375 227.644531 226.597656 223.308594 226.875 C 220.324219 227.066406 217.558594 226.917969 215.464844 226.453125 C 214.566406 226.257812 213.71875 225.492188 212.914062 224.28125 C 211.945312 225.148438 209.851562 226.917969 207.035156 228.84375 C 202.445312 236.273438 202.742188 241.875 204.269531 245.679688 C 205.132812 243.050781 208.351562 241.523438 208.351562 241.523438 C 204.207031 247.476562 207.859375 250.617188 208.261719 250.9375 C 209.375 251.558594 210.703125 251.820312 212.011719 251.628906 C 213.132812 251.460938 214.203125 251.300781 215.230469 251.152344 L 215.234375 251.152344 C 215.484375 251.117188 215.738281 251.082031 215.984375 251.042969 C 220.410156 250.328125 227.882812 247.84375 224.253906 244 C 220.410156 239.925781 210.785156 240.359375 210.785156 240.359375 C 234.445312 232.410156 243.535156 239.453125 251.488281 244.550781 C 259.132812 249.449219 263.765625 245.792969 264.113281 245.503906 C 266.273438 243.054688 267.128906 239.445312 267.496094 234.882812 C 268.199219 226.203125 271.363281 207.316406 273.300781 199.011719 C 274.796875 192.609375 272.089844 185.984375 265.828125 180.460938 Z M 265.828125 180.460938 " fill-opacity="1" fill-rule="nonzero"/></g></g></g></g><g fill="#ff8b04" fill-opacity="1"><g transform="translate(115.534211, 297.479851)"><g><path d="M 2.328125 1.203125 L 12.53125 -18.484375 L 17.390625 -15.96875 L 16.015625 -5.578125 C 15.921875 -4.890625 15.800781 -4.191406 15.65625 -3.484375 C 15.507812 -2.773438 15.390625 -2.0625 15.296875 -1.34375 L 15.421875 -1.28125 C 15.929688 -1.78125 16.429688 -2.289062 16.921875 -2.8125 C 17.410156 -3.34375 17.90625 -3.851562 18.40625 -4.34375 L 26.046875 -11.46875 L 30.890625 -8.96875 L 20.6875 10.71875 L 16.625 8.625 L 20.359375 1.40625 C 20.609375 0.925781 20.90625 0.40625 21.25 -0.15625 C 21.59375 -0.71875 21.953125 -1.28125 22.328125 -1.84375 C 22.703125 -2.40625 23.066406 -2.957031 23.421875 -3.5 C 23.785156 -4.039062 24.117188 -4.535156 24.421875 -4.984375 L 24.3125 -5.046875 L 20.265625 -1.203125 L 13.5625 4.859375 L 11.125 3.59375 L 12.203125 -5.390625 L 13.078125 -10.875 L 12.953125 -10.9375 C 12.765625 -10.425781 12.550781 -9.867188 12.3125 -9.265625 C 12.070312 -8.660156 11.828125 -8.046875 11.578125 -7.421875 C 11.328125 -6.796875 11.070312 -6.179688 10.8125 -5.578125 C 10.550781 -4.972656 10.296875 -4.429688 10.046875 -3.953125 L 6.3125 3.265625 Z M 2.328125 1.203125 "/></g></g></g><g fill="#ff8b04" fill-opacity="1"><g transform="translate(143.467794, 310.974087)"><g><path d="M 11.34375 3.484375 C 9.988281 3.117188 8.773438 2.539062 7.703125 1.75 C 6.628906 0.957031 5.757812 -0.015625 5.09375 -1.171875 C 4.4375 -2.335938 4.03125 -3.675781 3.875 -5.1875 C 3.726562 -6.707031 3.894531 -8.367188 4.375 -10.171875 C 4.851562 -11.929688 5.554688 -13.429688 6.484375 -14.671875 C 7.410156 -15.910156 8.460938 -16.882812 9.640625 -17.59375 C 10.816406 -18.3125 12.082031 -18.757812 13.4375 -18.9375 C 14.800781 -19.113281 16.160156 -19.019531 17.515625 -18.65625 C 18.890625 -18.28125 20.050781 -17.664062 21 -16.8125 C 21.945312 -15.957031 22.679688 -15.054688 23.203125 -14.109375 L 19.796875 -11.703125 C 19.390625 -12.367188 18.925781 -12.941406 18.40625 -13.421875 C 17.894531 -13.898438 17.257812 -14.242188 16.5 -14.453125 C 15.769531 -14.648438 15.039062 -14.675781 14.3125 -14.53125 C 13.582031 -14.382812 12.898438 -14.082031 12.265625 -13.625 C 11.628906 -13.164062 11.0625 -12.546875 10.5625 -11.765625 C 10.0625 -10.984375 9.664062 -10.054688 9.375 -8.984375 C 8.78125 -6.773438 8.785156 -4.929688 9.390625 -3.453125 C 10.003906 -1.984375 11.09375 -1.035156 12.65625 -0.609375 C 13.539062 -0.367188 14.378906 -0.347656 15.171875 -0.546875 C 15.960938 -0.742188 16.695312 -1.0625 17.375 -1.5 L 19.140625 2.21875 C 16.765625 3.832031 14.164062 4.253906 11.34375 3.484375 Z M 11.34375 3.484375 "/></g></g></g><g fill="#ff8b04" fill-opacity="1"><g transform="translate(167.315501, 316.935703)"><g><path d="M 6.4375 0.515625 L 1.546875 -22.109375 L 6.828125 -21.6875 L 8.640625 -11.171875 C 8.878906 -9.929688 9.082031 -8.726562 9.25 -7.5625 C 9.425781 -6.40625 9.628906 -5.195312 9.859375 -3.9375 L 10 -3.921875 C 10.414062 -5.128906 10.804688 -6.289062 11.171875 -7.40625 C 11.535156 -8.53125 11.925781 -9.6875 12.34375 -10.875 L 15.78125 -20.96875 L 20.859375 -20.5625 L 12.4375 1 Z M 6.4375 0.515625 "/></g></g></g><g fill="#ff8b04" fill-opacity="1"><g transform="translate(190.862944, 318.359501)"><g><path d="M 9.75 -0.515625 C 8.550781 -0.398438 7.414062 -0.488281 6.34375 -0.78125 C 5.269531 -1.082031 4.3125 -1.570312 3.46875 -2.25 C 2.625 -2.9375 1.9375 -3.800781 1.40625 -4.84375 C 0.882812 -5.882812 0.554688 -7.109375 0.421875 -8.515625 C 0.285156 -9.859375 0.390625 -11.097656 0.734375 -12.234375 C 1.078125 -13.378906 1.582031 -14.363281 2.25 -15.1875 C 2.925781 -16.007812 3.71875 -16.664062 4.625 -17.15625 C 5.53125 -17.65625 6.488281 -17.957031 7.5 -18.0625 C 8.695312 -18.175781 9.757812 -18.070312 10.6875 -17.75 C 11.625 -17.425781 12.425781 -16.929688 13.09375 -16.265625 C 13.757812 -15.609375 14.285156 -14.800781 14.671875 -13.84375 C 15.054688 -12.882812 15.300781 -11.832031 15.40625 -10.6875 C 15.445312 -10.238281 15.460938 -9.8125 15.453125 -9.40625 C 15.453125 -9 15.441406 -8.6875 15.421875 -8.46875 L 5.359375 -7.515625 C 5.703125 -6.328125 6.285156 -5.476562 7.109375 -4.96875 C 7.941406 -4.46875 8.925781 -4.269531 10.0625 -4.375 C 11.25 -4.488281 12.425781 -4.972656 13.59375 -5.828125 L 15.515625 -3 C 14.722656 -2.320312 13.816406 -1.765625 12.796875 -1.328125 C 11.773438 -0.890625 10.757812 -0.617188 9.75 -0.515625 Z M 5.015625 -10.796875 L 11.078125 -11.375 C 10.984375 -12.332031 10.691406 -13.082031 10.203125 -13.625 C 9.722656 -14.164062 8.972656 -14.382812 7.953125 -14.28125 C 7.171875 -14.207031 6.503906 -13.882812 5.953125 -13.3125 C 5.410156 -12.738281 5.097656 -11.898438 5.015625 -10.796875 Z M 5.015625 -10.796875 "/></g></g></g><g fill="#ff8b04" fill-opacity="1"><g transform="translate(212.978244, 315.864546)"><g><path d="M 6.328125 -1.3125 C 5.585938 -1.101562 4.882812 -1.039062 4.21875 -1.125 C 3.550781 -1.21875 2.945312 -1.429688 2.40625 -1.765625 C 1.863281 -2.097656 1.394531 -2.53125 1 -3.0625 C 0.613281 -3.59375 0.328125 -4.203125 0.140625 -4.890625 C -0.328125 -6.597656 0.03125 -8.132812 1.21875 -9.5 C 2.40625 -10.863281 4.550781 -12.144531 7.65625 -13.34375 C 7.425781 -14.050781 7.0625 -14.566406 6.5625 -14.890625 C 6.0625 -15.210938 5.363281 -15.25 4.46875 -15 C 3.769531 -14.8125 3.113281 -14.492188 2.5 -14.046875 C 1.882812 -13.597656 1.242188 -13.03125 0.578125 -12.34375 L -2.046875 -15.0625 C -1.148438 -15.976562 -0.1875 -16.785156 0.84375 -17.484375 C 1.882812 -18.191406 3.050781 -18.722656 4.34375 -19.078125 C 6.445312 -19.648438 8.210938 -19.488281 9.640625 -18.59375 C 11.066406 -17.707031 12.117188 -16.007812 12.796875 -13.5 L 15.34375 -4.1875 L 11.40625 -3.109375 L 10.625 -4.6875 L 10.5 -4.65625 C 9.96875 -3.851562 9.367188 -3.15625 8.703125 -2.5625 C 8.046875 -1.976562 7.253906 -1.5625 6.328125 -1.3125 Z M 6.96875 -5.484375 C 7.519531 -5.640625 7.957031 -5.890625 8.28125 -6.234375 C 8.601562 -6.578125 8.921875 -7.03125 9.234375 -7.59375 L 8.453125 -10.453125 C 6.816406 -9.742188 5.734375 -9.066406 5.203125 -8.421875 C 4.671875 -7.785156 4.492188 -7.15625 4.671875 -6.53125 C 4.804688 -6 5.082031 -5.65625 5.5 -5.5 C 5.914062 -5.34375 6.40625 -5.335938 6.96875 -5.484375 Z M 6.96875 -5.484375 "/></g></g></g><g fill="#ff8b04" fill-opacity="1"><g transform="translate(234.20539, 309.478653)"><g><path d="M 6.40625 -2.296875 C 5.625 -1.960938 4.90625 -1.800781 4.25 -1.8125 C 3.601562 -1.832031 3.019531 -2 2.5 -2.3125 C 1.988281 -2.625 1.523438 -3.0625 1.109375 -3.625 C 0.691406 -4.195312 0.3125 -4.878906 -0.03125 -5.671875 L -7.34375 -22.765625 L -2.75 -24.734375 L 4.640625 -7.453125 C 4.847656 -6.972656 5.078125 -6.675781 5.328125 -6.5625 C 5.585938 -6.457031 5.8125 -6.445312 6 -6.53125 C 6.101562 -6.570312 6.191406 -6.609375 6.265625 -6.640625 C 6.335938 -6.671875 6.429688 -6.734375 6.546875 -6.828125 L 8.5625 -3.671875 C 8.351562 -3.453125 8.070312 -3.222656 7.71875 -2.984375 C 7.363281 -2.753906 6.925781 -2.523438 6.40625 -2.296875 Z M 6.40625 -2.296875 "/></g></g></g><g fill="#ff8b04" fill-opacity="1"><g transform="translate(247.133378, 303.966528)"><g><path d="M 8.296875 -4.5625 C 7.390625 -4.007812 6.40625 -3.644531 5.34375 -3.46875 C 4.28125 -3.289062 3.226562 -3.320312 2.1875 -3.5625 C 1.144531 -3.8125 0.144531 -4.285156 -0.8125 -4.984375 C -1.769531 -5.691406 -2.613281 -6.644531 -3.34375 -7.84375 C -4.070312 -9.050781 -4.53125 -10.238281 -4.71875 -11.40625 C -4.90625 -12.582031 -4.863281 -13.6875 -4.59375 -14.71875 C -4.332031 -15.75 -3.875 -16.691406 -3.21875 -17.546875 C -2.570312 -18.398438 -1.796875 -19.101562 -0.890625 -19.65625 C 0.015625 -20.207031 0.988281 -20.570312 2.03125 -20.75 C 3.082031 -20.925781 4.125 -20.894531 5.15625 -20.65625 C 6.1875 -20.414062 7.179688 -19.941406 8.140625 -19.234375 C 9.097656 -18.535156 9.941406 -17.582031 10.671875 -16.375 C 11.398438 -15.175781 11.859375 -13.988281 12.046875 -12.8125 C 12.234375 -11.644531 12.195312 -10.539062 11.9375 -9.5 C 11.6875 -8.46875 11.242188 -7.523438 10.609375 -6.671875 C 9.972656 -5.816406 9.203125 -5.113281 8.296875 -4.5625 Z M 6.1875 -8.015625 C 7.0625 -8.546875 7.492188 -9.3125 7.484375 -10.3125 C 7.484375 -11.320312 7.097656 -12.457031 6.328125 -13.71875 C 5.566406 -14.976562 4.738281 -15.835938 3.84375 -16.296875 C 2.957031 -16.765625 2.078125 -16.734375 1.203125 -16.203125 C 0.304688 -15.660156 -0.128906 -14.890625 -0.109375 -13.890625 C -0.0976562 -12.898438 0.285156 -11.773438 1.046875 -10.515625 C 1.816406 -9.253906 2.640625 -8.382812 3.515625 -7.90625 C 4.398438 -7.4375 5.289062 -7.472656 6.1875 -8.015625 Z M 6.1875 -8.015625 "/></g></g></g></svg>
